<svg width="615" height="562" viewBox="0 0 615 562" fill="none" xmlns="http://www.w3.org/2000/svg">
<mask id="mask0_1834_4576" style="mask-type:luminance" maskUnits="userSpaceOnUse" x="4" y="0" width="588" height="257">
<path d="M4.84491 0.222656H591.402V256.63H4.84491V0.222656Z" fill="white"/>
</mask>
<g mask="url(#mask0_1834_4576)">
<path d="M28.6287 249.439C33.758 256.251 44.0232 258.198 51.2089 253.33L295.478 85.9024L539.748 253.33C546.934 258.198 557.196 256.251 562.328 249.439L587.985 216.339C593.117 209.527 591.064 199.791 583.882 194.927L478.167 121.919V43.0703C478.167 34.3079 470.984 27.4959 461.745 27.4959H424.797C415.559 27.4959 408.376 34.3079 408.376 43.0703V74.2192L304.714 3.15907C298.558 -0.735315 291.372 -0.735315 286.24 3.15907L7.07501 194.927C-0.110644 199.791 -2.16369 209.527 2.96892 216.339L28.6287 249.439Z" fill="#3498DB"/>
</g>
<path d="M408.376 458.724C434.033 458.724 460.719 464.566 483.299 475.272C488.432 477.219 494.588 479.167 500.747 479.167V261.118L296.505 120.945L92.2599 261.118V467.484C98.419 469.431 105.605 472.352 111.761 475.272C116.893 478.193 124.079 479.167 130.235 479.167C136.394 479.167 142.553 478.193 148.709 475.272C171.289 464.566 197.975 458.724 223.632 458.724C229.791 458.724 235.95 458.724 241.083 459.698V326.337C241.083 317.578 248.265 310.762 257.504 310.762H337.559C346.795 310.762 353.98 317.578 353.98 326.337V467.484C370.401 461.645 389.902 458.724 408.376 458.724Z" fill="#3498DB"/>
<mask id="mask1_1834_4576" style="mask-type:luminance" maskUnits="userSpaceOnUse" x="4" y="487" width="611" height="75">
<path d="M4.84491 487.556H614.91V561.611H4.84491V487.556Z" fill="white"/>
</mask>
<g mask="url(#mask1_1834_4576)">
<path d="M-345.989 526.863L-299.803 548.279C-264.907 564.827 -222.827 564.827 -187.931 548.279C-164.325 537.573 -136.615 537.573 -114.035 548.279C-96.5873 556.068 -77.0866 560.933 -57.586 560.933C-38.0854 560.933 -18.5847 557.039 -1.13715 548.279C22.4696 537.573 50.1824 537.573 72.7593 548.279C107.658 564.827 149.735 564.827 184.634 548.279C208.237 537.573 235.95 537.573 258.53 548.279C293.425 564.827 335.506 564.827 370.401 548.279C394.008 537.573 421.718 537.573 444.298 548.279C479.193 564.827 521.274 564.827 556.169 548.279L602.356 526.863C612.618 521.995 617.751 509.342 612.618 499.609C607.485 489.873 594.144 485.005 583.882 489.873L537.695 511.289C514.088 521.995 486.379 521.995 463.799 511.289C428.903 494.741 386.823 494.741 351.927 511.289C328.321 521.995 300.608 521.995 278.031 511.289C243.132 494.741 201.055 494.741 166.16 511.289C142.553 521.995 114.84 521.995 92.26 511.289C57.3648 494.741 15.2839 494.741 -19.6113 511.289C-43.218 521.995 -70.9275 521.995 -93.5077 511.289C-128.403 494.741 -170.484 494.741 -205.379 511.289C-228.986 521.995 -256.695 521.995 -279.275 511.289L-325.462 489.873C-335.724 485.005 -349.066 488.899 -354.198 499.609C-361.384 509.342 -357.278 521.022 -345.989 526.863Z" fill="#3498DB"/>
</g>
</svg>
