<svg width="660" height="581" viewBox="0 0 660 581" fill="none" xmlns="http://www.w3.org/2000/svg">
<g clip-path="url(#clip0_1834_4608)">
<mask id="mask0_1834_4608" style="mask-type:luminance" maskUnits="userSpaceOnUse" x="-1" y="0" width="450" height="581">
<path d="M-0.222595 0.25H448.479V580.75H-0.222595V0.25Z" fill="white"/>
</mask>
<g mask="url(#mask0_1834_4608)">
<path d="M0.154846 0.25V580.75H447.796V513.768L377.118 469.116L329.997 357.482L212.197 335.155L165.076 201.194L188.636 89.5565L70.8367 0.25H0.154846Z" fill="#3498DB"/>
</g>
<path d="M282.875 178.866L329.997 156.539L377.118 178.866V245.846L329.997 268.173H306.436V245.846L259.318 223.518L282.875 178.866Z" fill="#3498DB"/>
<path d="M377.118 357.482L424.236 290.5L471.357 312.827V335.155H494.918V379.806L471.357 402.134H447.796L424.236 379.806H400.679L377.118 357.482Z" fill="#3498DB"/>
<mask id="mask1_1834_4608" style="mask-type:luminance" maskUnits="userSpaceOnUse" x="471" y="513" width="119" height="68">
<path d="M471.167 513.463H589.646V580.75H471.167V513.463Z" fill="white"/>
</mask>
<g mask="url(#mask1_1834_4608)">
<path d="M518.478 513.768L565.6 536.095H589.157V558.422L565.6 580.75H471.357L494.918 536.095V513.768H518.478Z" fill="#3498DB"/>
</g>
<path d="M235.758 89.5566H259.318V111.884H235.758V89.5566Z" fill="#3498DB"/>
<path d="M212.197 178.866H235.758V201.194H212.197V178.866Z" fill="#3498DB"/>
<path d="M424.236 223.518H447.796V245.845H424.236V223.518Z" fill="#3498DB"/>
<path d="M424.236 424.461H447.796V446.788H424.236V424.461Z" fill="#3498DB"/>
<path d="M518.478 469.116H542.039V491.444H518.478V469.116Z" fill="#3498DB"/>
<path d="M636.278 536.096H659.839V558.423H636.278V536.096Z" fill="#3498DB"/>
<path d="M235.758 268.173H259.318V290.5H235.758V268.173Z" fill="#3498DB"/>
</g>
<defs>
<clipPath id="clip0_1834_4608">
<rect width="660" height="581" fill="white"/>
</clipPath>
</defs>
</svg>
