<svg width="955" height="423" viewBox="0 0 955 423" fill="none" xmlns="http://www.w3.org/2000/svg">
<g clip-path="url(#clip0_1834_4564)">
<mask id="mask0_1834_4564" style="mask-type:luminance" maskUnits="userSpaceOnUse" x="207" y="0" width="643" height="343">
<path d="M207.154 0.139648H849.435V342.037H207.154V0.139648Z" fill="white"/>
</mask>
<g mask="url(#mask0_1834_4564)">
<path d="M220.607 157.753L581.772 0.208008L848.802 279.512L835.553 341.042L834.851 341.639L568.283 62.8137L207.748 220.092L207.348 219.286L220.607 157.753Z" fill="white"/>
</g>
<mask id="mask1_1834_4564" style="mask-type:luminance" maskUnits="userSpaceOnUse" x="-1" y="316" width="957" height="107">
<path d="M-0.0359802 316.556H955.033V422.376H-0.0359802V316.556Z" fill="white"/>
</mask>
<g mask="url(#mask1_1834_4564)">
<path d="M753.854 333.953C753.985 334.018 754.126 334.077 754.251 334.136C770.826 341.916 786.49 349.244 818.505 349.244C841.725 349.244 856.306 345.375 868.9 340.295V358.296C856.182 362.719 840.741 365.966 818.505 365.966C786.126 365.966 768.104 359.092 751.998 351.717C752.814 345.552 753.464 338.737 753.854 333.953ZM60.1254 336.273C61.6603 335.567 63.1853 334.861 64.73 334.136C82.3875 325.868 100.658 317.314 136.806 317.314C172.954 317.314 191.225 325.868 208.892 334.136C222.096 340.326 234.867 346.155 255.614 348.311C254.807 353.213 253.892 359.229 253.085 364.787C229.708 362.299 215.081 355.686 201.097 349.135C184.502 341.371 168.842 334.037 136.806 334.037C104.771 334.037 89.1107 341.371 72.5256 349.135C68.4983 351.017 64.4086 352.911 60.1254 354.719V336.273ZM0.439545 422.737C36.5974 422.737 54.8583 414.173 72.5256 405.902C89.1107 398.132 104.771 390.804 136.806 390.804C168.842 390.804 184.502 398.132 201.097 405.902C218.764 414.173 237.025 422.737 273.183 422.737C309.331 422.737 327.592 414.173 345.259 405.902C361.834 398.132 377.504 390.804 409.53 390.804C441.565 390.804 457.219 398.132 473.81 405.902C491.468 414.173 509.739 422.737 545.88 422.737C582.012 422.737 600.263 414.173 617.92 405.902C634.505 398.132 650.159 390.804 682.175 390.804C714.21 390.804 729.864 398.132 746.449 405.902C764.106 414.173 782.367 422.737 818.505 422.737C854.647 422.737 872.918 414.173 890.565 405.902C907.15 398.132 922.81 390.804 954.829 390.804V374.082C918.698 374.082 900.427 382.639 882.77 390.907C866.194 398.677 850.531 406.014 818.505 406.014C786.49 406.014 770.826 398.677 754.251 390.907C736.593 382.639 718.323 374.082 682.175 374.082C646.033 374.082 627.782 382.639 610.115 390.913C593.54 398.677 577.896 406.014 545.88 406.014C513.855 406.014 498.191 398.677 481.606 390.907C463.942 382.639 445.681 374.082 409.53 374.082C373.392 374.082 355.121 382.639 337.463 390.907C320.868 398.677 305.215 406.014 273.183 406.014C241.147 406.014 225.484 398.677 208.892 390.907C191.225 382.639 172.954 374.082 136.806 374.082C100.658 374.082 82.3875 382.639 64.73 390.907C48.1351 398.677 32.4815 406.014 0.439545 406.014V422.737Z" fill="white"/>
</g>
<path d="M622.974 163.147L630.222 159.43L561.478 87.5173L622.974 163.147ZM705.821 265.035L736.672 270.781L645.991 175.916L637.867 181.458L705.821 265.035ZM307.816 186.513L565.886 73.9336L756.701 273.515L737.03 364.806C723.547 359.269 707.654 354.871 682.362 354.871C666.219 354.871 653.973 356.697 643.659 359.437L653.317 314.605L519.61 288.697L499.939 380.022C482.892 374.308 470.806 366.277 453.228 360.818L470.806 279.235L337.099 253.318L315.165 355.123L358.42 363.499C333.675 372.965 318.297 386.8 273.366 386.8C270.3 386.8 267.516 386.667 264.712 386.539L307.816 186.513Z" fill="white"/>
</g>
<defs>
<clipPath id="clip0_1834_4564">
<rect width="955" height="423" fill="white"/>
</clipPath>
</defs>
</svg>
