<svg width="956" height="423" viewBox="0 0 956 423" fill="none" xmlns="http://www.w3.org/2000/svg">
<g clip-path="url(#clip0_1834_4632)">
<mask id="mask0_1834_4632" style="mask-type:luminance" maskUnits="userSpaceOnUse" x="207" y="0" width="644" height="343">
<path d="M207.431 0.139648H850.243V342.037H207.431V0.139648Z" fill="white"/>
</mask>
<g mask="url(#mask0_1834_4632)">
<path d="M220.895 157.753L582.358 0.208008L849.609 279.512L836.349 341.042L835.646 341.639L568.858 62.8137L208.025 220.092L207.624 219.286L220.895 157.753Z" fill="#3498DB"/>
</g>
<mask id="mask1_1834_4632" style="mask-type:luminance" maskUnits="userSpaceOnUse" x="0" y="316" width="956" height="107">
<path d="M0.0689697 316.556H955.928V422.376H0.0689697V316.556Z" fill="white"/>
</mask>
<g mask="url(#mask1_1834_4632)">
<path d="M754.583 333.953C754.714 334.018 754.855 334.077 754.98 334.136C771.569 341.916 787.245 349.244 819.287 349.244C842.526 349.244 857.12 345.375 869.724 340.295V358.296C856.995 362.719 841.542 365.966 819.287 365.966C786.881 365.966 768.844 359.092 752.725 351.717C753.542 345.552 754.192 338.737 754.583 333.953ZM60.2801 336.273C61.8163 335.567 63.3426 334.861 64.8885 334.136C82.5606 325.868 100.847 317.314 137.024 317.314C173.202 317.314 191.488 325.868 209.17 334.136C222.385 340.326 235.166 346.155 255.93 348.311C255.123 353.213 254.207 359.229 253.4 364.787C230.003 362.299 215.364 355.686 201.368 349.135C184.759 341.371 169.086 334.037 137.024 334.037C104.963 334.037 89.2894 341.371 72.6907 349.135C68.6599 351.017 64.5669 352.911 60.2801 354.719V336.273ZM0.544922 422.737C36.7327 422.737 55.0087 414.173 72.6907 405.902C89.2894 398.132 104.963 390.804 137.024 390.804C169.086 390.804 184.759 398.132 201.368 405.902C219.05 414.173 237.326 422.737 273.514 422.737C309.692 422.737 327.968 414.173 345.65 405.902C362.239 398.132 377.922 390.804 409.974 390.804C442.035 390.804 457.702 398.132 474.307 405.902C491.979 414.173 510.265 422.737 546.437 422.737C582.598 422.737 600.864 414.173 618.536 405.902C635.135 398.132 650.802 390.804 682.844 390.804C714.906 390.804 730.572 398.132 747.171 405.902C764.843 414.173 783.119 422.737 819.287 422.737C855.459 422.737 873.745 414.173 891.407 405.902C908.006 398.132 923.679 390.804 955.724 390.804V374.082C919.563 374.082 901.277 382.639 883.605 390.907C867.016 398.677 851.339 406.014 819.287 406.014C787.245 406.014 771.569 398.677 754.98 390.907C737.308 382.639 719.022 374.082 682.844 374.082C646.673 374.082 628.406 382.639 610.724 390.913C594.136 398.677 578.479 406.014 546.437 406.014C514.385 406.014 498.708 398.677 482.109 390.907C464.431 382.639 446.155 374.082 409.974 374.082C373.806 374.082 355.52 382.639 337.848 390.907C321.239 398.677 305.572 406.014 273.514 406.014C241.452 406.014 225.775 398.677 209.17 390.907C191.488 382.639 173.202 374.082 137.024 374.082C100.847 374.082 82.5606 382.639 64.8885 390.907C48.2799 398.677 32.6133 406.014 0.544922 406.014V422.737Z" fill="#3498DB"/>
</g>
<path d="M623.595 163.147L630.849 159.43L562.047 87.5173L623.595 163.147ZM706.51 265.035L737.387 270.781L646.63 175.916L638.5 181.458L706.51 265.035ZM308.175 186.513L566.459 73.9336L757.432 273.515L737.744 364.806C724.251 359.269 708.344 354.871 683.031 354.871C666.875 354.871 654.619 356.697 644.296 359.437L653.963 314.605L520.145 288.697L500.458 380.022C483.396 374.308 471.301 366.277 453.707 360.818L471.301 279.235L337.483 253.318L315.531 355.123L358.822 363.499C334.056 372.965 318.666 386.8 273.698 386.8C270.629 386.8 267.842 386.667 265.036 386.539L308.175 186.513Z" fill="#3498DB"/>
</g>
<defs>
<clipPath id="clip0_1834_4632">
<rect width="956" height="423" fill="white"/>
</clipPath>
</defs>
</svg>
