<svg width="827" height="478" viewBox="0 0 827 478" fill="none" xmlns="http://www.w3.org/2000/svg">
<g clip-path="url(#clip0_1834_4628)">
<path d="M114.369 391.494C144.22 391.494 177.944 382.878 212.626 357.711C238.654 375.92 322.697 423.632 413.539 357.711C439.566 375.92 523.617 423.632 614.452 357.711C641.221 376.439 729.347 426.357 823.115 351.819C828.241 347.742 828.92 340.494 824.62 335.623C820.314 330.755 812.673 330.117 807.537 334.195C712.106 410.08 626.207 337.654 622.615 334.544C618.129 330.643 611.301 330.494 606.624 334.195C511.187 410.08 425.284 337.654 421.702 334.544C417.216 330.643 410.378 330.494 405.711 334.195C310.28 410.08 224.377 337.654 220.789 334.544C216.3 330.643 209.465 330.494 204.798 334.195C109.358 410.08 23.4644 337.654 19.8601 334.528C14.9275 330.251 7.26959 330.562 2.74371 335.231C-1.78217 339.903 -1.46076 347.179 3.47179 351.471C4.15723 352.071 50.4458 391.494 114.369 391.494Z" fill="#3498DB"/>
<path d="M807.537 420.22C712.106 496.099 626.207 423.67 622.615 420.569C618.129 416.662 611.301 416.519 606.624 420.22C511.187 496.099 425.284 423.67 421.702 420.569C417.216 416.662 410.378 416.519 405.711 420.22C310.28 496.105 224.377 423.679 220.789 420.569C216.3 416.662 209.465 416.519 204.798 420.22C109.358 496.105 23.4644 423.679 19.8601 420.553C14.9275 416.276 7.26959 416.578 2.74371 421.25C-1.78217 425.928 -1.46076 433.197 3.47179 437.496C4.15723 438.096 50.4458 477.513 114.369 477.513C144.22 477.513 177.944 468.903 212.626 443.73C238.654 461.945 322.697 509.651 413.539 443.73C439.566 461.945 523.617 509.651 614.452 443.73C641.221 462.464 729.347 512.382 823.115 437.844C828.241 433.767 828.92 426.513 824.62 421.642C820.314 416.78 812.673 416.142 807.537 420.22Z" fill="#3498DB"/>
<path d="M103.333 228.452H182.647V300.502C189.954 296.274 197.337 291.353 204.798 285.425C209.465 281.717 216.3 281.863 220.789 285.773C224.377 288.881 310.28 361.3 405.711 285.425C410.378 281.717 417.216 281.863 421.702 285.773C425.284 288.874 511.187 361.3 606.624 285.425C611.301 281.717 618.129 281.863 622.615 285.773C623.652 286.66 631.52 293.291 644.435 300.474V228.452H723.634C728.567 228.452 732.935 225.426 734.421 220.962C735.91 216.505 734.185 211.643 730.151 208.949L632.589 143.812V64.8476C632.589 58.9189 627.515 54.1162 621.274 54.1162H560.391C554.14 54.1162 549.076 58.9189 549.076 64.8476V88.1206L420.007 2.02724C416.098 -0.579391 410.893 -0.579391 406.983 2.02724L96.8164 208.949C92.789 211.643 91.0574 216.498 92.5398 220.962C94.032 225.416 98.3939 228.452 103.333 228.452Z" fill="#3498DB"/>
</g>
<defs>
<clipPath id="clip0_1834_4628">
<rect width="827" height="478" fill="white"/>
</clipPath>
</defs>
</svg>
