<svg width="21" height="20" viewBox="0 0 21 20" fill="none" xmlns="http://www.w3.org/2000/svg">
<path d="M4.45801 6.66667H6.54134" stroke="#2ECC71" stroke-width="1.5" stroke-linecap="round" stroke-linejoin="round"/>
<path d="M11.125 6.66667H16.5417" stroke="#2ECC71" stroke-width="1.5" stroke-linecap="round" stroke-linejoin="round"/>
<path d="M4.45801 13.3333H10.708" stroke="#2ECC71" stroke-width="1.5" stroke-linecap="round" stroke-linejoin="round"/>
<path d="M15.292 13.3333H16.542" stroke="#2ECC71" stroke-width="1.5" stroke-linecap="round" stroke-linejoin="round"/>
<path d="M10.708 6.66667C10.708 7.70221 9.86854 8.54167 8.83301 8.54167C7.79747 8.54167 6.95801 7.70221 6.95801 6.66667C6.95801 5.63114 7.79747 4.79167 8.83301 4.79167C9.86854 4.79167 10.708 5.63114 10.708 6.66667Z" stroke="#2ECC71" stroke-width="1.5" stroke-linecap="round" stroke-linejoin="round"/>
<path d="M14.875 13.3333C14.875 14.3689 14.0355 15.2083 13 15.2083C11.9645 15.2083 11.125 14.3689 11.125 13.3333C11.125 12.2978 11.9645 11.4583 13 11.4583C14.0355 11.4583 14.875 12.2978 14.875 13.3333Z" stroke="#2ECC71" stroke-width="1.5" stroke-linecap="round" stroke-linejoin="round"/>
</svg>