<svg width="93" height="201" viewBox="0 0 93 201" fill="none" xmlns="http://www.w3.org/2000/svg">
<path d="M22.589 201C10.2958 201 0.33028 189.844 0.33028 176.083C0.33028 162.322 10.2958 151.166 22.589 151.166C34.8821 151.166 44.8477 162.322 44.8477 176.083C44.8477 189.844 34.8821 201 22.589 201Z" fill="#E6E6E6"/>
<path d="M40.6196 132.909C43.7045 132.909 46.7233 131.909 49.3107 130.028C51.898 128.148 53.943 125.468 55.1981 122.313L90.5184 33.2726C91.6884 30.3231 92.3072 27.137 92.3368 23.9099C92.3663 20.6829 91.806 17.4832 90.6902 14.5075C89.5745 11.5318 87.9269 8.84298 85.8487 6.6063C83.7705 4.36962 81.3056 2.63235 78.6056 1.50126C75.9055 0.370178 73.0274 -0.130821 70.148 0.0290652C67.2687 0.188951 64.4489 1.00634 61.8621 2.43099C59.2753 3.85565 56.9762 5.85746 55.1059 8.31339C53.2356 10.7693 51.8338 13.6275 50.9866 16.7122L25.4104 109.835C24.6782 112.501 24.5146 115.321 24.9328 118.071C25.3511 120.82 26.3394 123.421 27.8185 125.665C29.2976 127.909 31.2262 129.733 33.4494 130.991C35.6726 132.249 38.1284 132.906 40.6196 132.909Z" fill="#E6E6E6"/>
</svg>
