<svg width="207" height="200" viewBox="0 0 207 200" fill="none" xmlns="http://www.w3.org/2000/svg">
<path d="M4.33129 199.313L13.0205 168.416C13.0205 168.416 3.46295 179.678 3.46295 188.918L5.17841 167.55C5.17841 167.55 0.2771 175.346 0.767232 187.185C1.25736 199.025 4.33129 199.313 4.33129 199.313Z" fill="white"/>
<path d="M190.931 171.18L199.411 141.025C199.411 141.025 190.083 152.016 190.083 161.034L191.758 140.18C191.758 140.18 186.974 147.789 187.452 159.343C187.931 170.898 190.931 171.18 190.931 171.18Z" fill="#E6E6E6"/>
<path d="M58.5688 185.095C58.5543 204.931 91.9437 198.83 132.82 198.871C173.697 198.913 206.581 205.082 206.596 185.246C206.61 165.41 173.233 161.061 132.356 161.02C91.48 160.978 58.5834 165.259 58.5688 185.095Z" fill="#E6E6E6"/>
<path d="M87.2172 158.306H92.5613L95.1045 134.019H87.2172V158.306Z" fill="#A0616A"/>
<path d="M96.9726 156.507H86.0725V164.153H102.868V163.454C102.868 161.611 102.247 159.844 101.141 158.541C100.036 157.239 98.5362 156.507 96.9726 156.507Z" fill="#2F2E41"/>
<path d="M47.9359 194.153H53.28L55.8232 169.865H47.9359V194.153Z" fill="#A0616A"/>
<path d="M57.6913 192.354H46.7913V200H63.5869V199.3C63.5869 197.458 62.9657 195.691 61.8601 194.388C60.7545 193.085 59.2549 192.354 57.6913 192.354Z" fill="#2F2E41"/>
<path d="M23.2859 121.999C22.9164 121.471 22.6496 120.854 22.5044 120.191C22.3592 119.529 22.339 118.836 22.4453 118.164C22.5516 117.491 22.7819 116.854 23.1198 116.297C23.4577 115.741 23.8951 115.278 24.4011 114.942L36.813 55.3662L44.749 59.3895L29.986 116.994C30.4085 118.033 30.4929 119.219 30.2231 120.326C29.9534 121.434 29.3482 122.386 28.5223 123.003C27.6965 123.62 26.7072 123.858 25.7421 123.673C24.777 123.488 23.9031 122.892 23.2859 121.999Z" fill="#A0616A"/>
<path d="M32.9671 1.59469C33.4101 1.04906 33.9491 0.624506 34.5464 0.350932C35.1437 0.0773568 35.7846 -0.0385856 36.424 0.0112727C37.0634 0.061131 37.6858 0.275564 38.2473 0.639492C38.8087 1.00342 39.2957 1.50799 39.6737 2.11763L58.8848 4.71638L55.9624 13.4475L38.4911 9.59462C37.5798 10.2751 36.4883 10.5381 35.4234 10.3337C34.3586 10.1293 33.3943 9.47179 32.7134 8.4857C32.0325 7.4996 31.6823 6.25345 31.729 4.9834C31.7758 3.71334 32.2163 2.50762 32.9671 1.59469Z" fill="#A0616A"/>
<path d="M64.625 115.82L56.242 189.954L45.8083 187.422C45.8083 187.422 47.3427 133.433 42.1258 126.924C36.9089 120.416 48.8358 109.014 48.8358 109.014L64.625 115.82Z" fill="#2F2E41"/>
<path d="M61.1587 95.4012L65.0097 102.208C65.0097 102.208 94.6626 87.6875 94.6626 110.829C94.6626 133.971 96.3595 149.676 96.9732 150.76C97.587 151.845 89.8729 154.66 86.1904 153.937C86.1904 153.937 81.6473 116.629 81.9542 114.459C81.9542 114.459 52.866 131.264 47.3423 129.817C41.8185 128.371 40.5135 123.251 39.5929 120.358C38.6723 117.466 39.978 94.4936 39.978 94.4936L58.3898 87.873L61.1587 95.4012Z" fill="#2F2E41"/>
<path d="M60.6401 54.535L61.7377 52.983C61.7377 52.983 74.0316 20.3899 69.2019 11.595C64.3721 2.8 43.2969 1.50662 42.6383 2.02397C41.9797 2.54132 44.2114 9.25824 42.6747 12.3624C42.6747 12.3624 59.0007 16.533 60.0984 17.0504C61.1961 17.5677 51.6392 36.6864 51.6392 36.6864L52.7368 48.3268L60.6401 54.535Z" fill="#CCCCCC"/>
<path d="M39.1252 38.4972C39.1252 38.4972 50.5409 40.0493 50.98 40.0493C51.4191 40.0493 51.6386 36.6865 51.6386 36.6865L61.7372 52.9831C61.7372 52.9831 66.7124 100.261 65.3952 99.4853C64.078 98.7092 39.7838 103.166 39.5643 101.097C39.3447 99.0272 39.7838 88.6802 39.1252 88.1629C38.4666 87.6455 27.7095 55.5698 27.7095 55.5698C27.7095 55.5698 28.8072 48.8443 32.5392 46.5162C36.2713 44.1881 39.1252 38.4972 39.1252 38.4972Z" fill="#CCCCCC"/>
<path d="M31.222 51.1729L27.7095 55.5703C27.7095 55.5703 22.4906 106.101 25.3445 107.654C28.1984 109.206 33.8167 109.015 33.8167 109.015L39.3447 85.0593L31.222 51.1729Z" fill="#CCCCCC"/>
<path d="M50.0936 35.2969C44.5129 35.2969 39.989 29.9663 39.989 23.3906C39.989 16.815 44.5129 11.4844 50.0936 11.4844C55.6742 11.4844 60.1982 16.815 60.1982 23.3906C60.1982 29.9663 55.6742 35.2969 50.0936 35.2969Z" fill="#A0616A"/>
<path d="M52.4672 25.2484C52.6037 22.7779 55.2488 22.6933 57.3498 22.6699C59.4508 22.6465 61.9627 22.7349 63.1516 20.6936C63.9372 19.3445 63.7871 17.4717 63.1381 16.0253C62.489 14.579 61.4214 13.4666 60.3711 12.3964C57.6594 9.63349 54.8647 6.89252 51.6091 5.12408C48.3536 3.35564 44.5385 2.64107 41.1621 4.06068C37.0145 5.80453 31.4077 14.7813 30.9236 19.9387C30.4394 25.0961 32.1887 30.3537 35.1373 34.2077C38.086 38.0617 44.8349 36.5067 49.0822 37.8778C46.5001 33.5717 48.202 25.7475 52.3385 23.7366L52.4672 25.2484Z" fill="#2F2E41"/>
</svg>
