<svg width="41" height="41" viewBox="0 0 41 41" fill="none" xmlns="http://www.w3.org/2000/svg">
<path fill-rule="evenodd" clip-rule="evenodd" d="M20 2C11.7125 2 5 8.88228 5 17.3794C5 24.1848 9.29375 29.9329 15.2562 31.9706C16.0062 32.1052 16.2875 31.6438 16.2875 31.2401C16.2875 30.8748 16.2688 29.6637 16.2688 28.3757C12.5 29.087 11.525 27.4337 11.225 26.5686C11.0562 26.1264 10.325 24.7615 9.6875 24.3963C9.1625 24.1079 8.4125 23.3966 9.66875 23.3774C10.85 23.3582 11.6937 24.4924 11.975 24.9538C13.325 27.2799 15.4812 26.6263 16.3438 26.2226C16.475 25.2229 16.8688 24.5501 17.3 24.1656C13.9625 23.7811 10.475 22.4546 10.475 16.572C10.475 14.8995 11.0562 13.5153 12.0125 12.4388C11.8625 12.0543 11.3375 10.4779 12.1625 8.36323C12.1625 8.36323 13.4188 7.95952 16.2875 9.93962C17.4875 9.59358 18.7625 9.42056 20.0375 9.42056C21.3125 9.42056 22.5875 9.59358 23.7875 9.93962C26.6563 7.9403 27.9125 8.36323 27.9125 8.36323C28.7375 10.4779 28.2125 12.0543 28.0625 12.4388C29.0187 13.5153 29.6 14.8803 29.6 16.572C29.6 22.4738 26.0938 23.7811 22.7563 24.1656C23.3 24.6462 23.7688 25.5689 23.7688 27.0108C23.7688 29.0678 23.75 30.721 23.75 31.2401C23.75 31.6438 24.0312 32.1244 24.7812 31.9706C27.759 30.9399 30.3466 28.9777 32.1797 26.3603C34.0128 23.7428 34.9992 20.6018 35 17.3794C35 8.88228 28.2875 2 20 2Z" stroke="white" stroke-width="1.55963" stroke-linejoin="round"/>
</svg>
