<svg width="32" height="32" viewBox="0 0 32 32" fill="none" xmlns="http://www.w3.org/2000/svg">
<path d="M1.09742 9.28101C1.17127 7.66733 1.42393 6.6266 1.76563 5.74318L1.77023 5.73098C2.10884 4.83203 2.63928 4.01766 3.32463 3.34456L3.33425 3.33512L3.34369 3.3255C4.01735 2.63926 4.832 2.10934 5.73017 1.77163L5.74567 1.76571C6.62706 1.42294 7.66577 1.17121 9.28079 1.09738M1.09742 9.28101C1.01978 11.0051 1 11.5396 1 16.0099C1 20.4813 1.0187 21.0145 1.09738 22.739M1.09742 9.28101L1.09742 9.71592M1.77163 26.2896C2.10934 27.1878 2.63927 28.0024 3.3255 28.6761L3.3351 28.6855L3.34453 28.6951C4.01767 29.3805 4.83205 29.9109 5.73102 30.2496L5.74444 30.2546C6.62664 30.5968 7.66585 30.8486 9.28079 30.9224M1.77163 26.2896L1.76571 26.2741C1.42294 25.3927 1.17121 24.354 1.09738 22.739M1.77163 26.2896L1.75138 26.183M1.09738 22.739L1.12382 22.8782M1.09738 22.739L1.09738 22.303M1.75138 26.183L1.12382 22.8782M1.75138 26.183C1.48485 25.4788 1.2104 24.4964 1.12382 22.8782M1.75138 26.183C1.76073 26.2077 1.77007 26.232 1.7794 26.2561C2.11741 27.1673 2.65298 27.9924 3.34761 28.6721C4.02702 29.3666 4.8518 29.902 5.76272 30.24C6.49375 30.5248 7.52382 30.8223 9.28054 30.9029C11.0534 30.9835 11.6011 31 16.0099 31C20.4187 31 20.9669 30.9835 22.7397 30.9028C24.4986 30.8222 25.5275 30.523 26.2559 30.2405C27.1674 29.9026 27.9926 29.3669 28.6722 28.672C29.3666 27.9926 29.9021 27.1679 30.24 26.257C30.5248 25.526 30.8224 24.4959 30.9029 22.7392C30.9835 20.9664 31 20.4176 31 16.0099C31 11.6022 30.9835 11.0529 30.9028 9.28008C30.8218 7.512 30.5199 6.48161 30.236 5.7525C29.865 4.79456 29.3944 4.07006 28.671 3.34675C27.9492 2.6263 27.2266 2.15546 26.268 1.78402C25.5363 1.49795 24.5052 1.19785 22.7397 1.11694C22.5862 1.10996 22.4418 1.10345 22.3034 1.0974M1.12382 22.8782C1.12138 22.8326 1.11908 22.7864 1.11694 22.7397C1.10995 22.586 1.10344 22.4416 1.09738 22.303M9.28079 1.09738C11.0053 1.0187 11.5396 1 16.0099 1C20.4801 1 21.0142 1.01976 22.7383 1.0974M9.28079 1.09738L9.71681 1.09738M22.7383 1.0974L22.3034 1.0974M22.7383 1.0974C24.3522 1.17121 25.3931 1.42385 26.2766 1.76558L26.2888 1.77023C27.1878 2.10884 28.0021 2.63928 28.6752 3.32463L28.6846 3.33415L28.6941 3.3435C29.3796 4.01666 29.9099 4.83125 30.2483 5.73046L30.2541 5.74567C30.5968 6.62706 30.8486 7.66577 30.9224 9.28079M9.71681 1.09738L22.3034 1.0974M9.71681 1.09738C11.1771 1.03353 11.9842 1.01978 16.0099 1.01978C20.0359 1.01978 20.8428 1.03353 22.3034 1.0974M9.71681 1.09738C9.57822 1.10344 9.43374 1.10995 9.28008 1.11694C7.52116 1.19755 6.49231 1.4968 5.76386 1.77933C4.849 2.11847 4.02102 2.65689 3.33993 3.35558C2.62336 4.07509 2.15433 4.79613 1.78407 5.75168C1.49798 6.48338 1.19784 7.51496 1.11692 9.28054C1.10995 9.43371 1.10346 9.57775 1.09742 9.71592M30.9224 22.739C30.8486 24.3539 30.5968 25.3932 30.2547 26.2754L30.2495 26.2888C29.9109 27.1878 29.3805 28.0021 28.6951 28.6752L28.6855 28.6847L28.6761 28.6943C28.0024 29.3805 27.1878 29.9104 26.2896 30.2481L26.2741 30.2541C25.3927 30.5968 24.354 30.8486 22.739 30.9224M1.09738 22.303C1.03353 20.8427 1.01978 20.0355 1.01978 16.0099C1.01978 11.983 1.03352 11.177 1.09742 9.71592M1.09738 22.303L1.09742 9.71592M13.3403 22.4549C14.1867 22.8055 15.0938 22.9859 16.0099 22.9859C17.8601 22.9859 19.6344 22.251 20.9427 20.9427C22.251 19.6344 22.9859 17.86 22.9859 16.0099C22.9859 14.1597 22.251 12.3853 20.9427 11.0771C19.6344 9.76882 17.8601 9.03385 16.0099 9.03385C15.0938 9.03385 14.1867 9.21429 13.3403 9.56487C12.4939 9.91545 11.7249 10.4293 11.0771 11.0771C10.4293 11.7249 9.91546 12.4939 9.56488 13.3403C9.2143 14.1866 9.03386 15.0938 9.03386 16.0099C9.03386 16.926 9.2143 17.8331 9.56488 18.6795C9.91546 19.5259 10.4293 20.2949 11.0771 20.9427C11.7249 21.5905 12.4939 22.1043 13.3403 22.4549ZM11.0616 11.0615C12.3739 9.74916 14.1539 9.01187 16.0099 9.01187C17.8659 9.01187 19.6459 9.74916 20.9582 11.0615C22.2706 12.3739 23.0079 14.1539 23.0079 16.0099C23.0079 17.8659 22.2706 19.6459 20.9582 20.9582C19.6459 22.2706 17.8659 23.0079 16.0099 23.0079C14.1539 23.0079 12.3739 22.2706 11.0616 20.9582C9.74917 19.6459 9.01188 17.8659 9.01188 16.0099C9.01188 14.1539 9.74917 12.3739 11.0616 11.0615ZM26.9485 7.38257C26.9485 7.91379 26.7374 8.42325 26.3618 8.79888C25.9862 9.17451 25.4767 9.38554 24.9455 9.38554C24.4143 9.38554 23.9048 9.17451 23.5292 8.79888C23.1536 8.42325 22.9425 7.91379 22.9425 7.38257C22.9425 6.85135 23.1536 6.34189 23.5292 5.96626C23.9048 5.59063 24.4143 5.3796 24.9455 5.3796C25.4767 5.3796 25.9862 5.59063 26.3618 5.96626C26.7374 6.34189 26.9485 6.85135 26.9485 7.38257Z" stroke="white" stroke-width="1.55963" stroke-linejoin="round"/>
</svg>
