<svg width="32" height="32" viewBox="0 0 32 32" fill="none" xmlns="http://www.w3.org/2000/svg">
<path d="M31 3.20588V28.7941C31 29.3792 30.7676 29.9402 30.3539 30.3539C29.9402 30.7676 29.3792 31 28.7941 31H3.20588C2.62085 31 2.05977 30.7676 1.64609 30.3539C1.2324 29.9402 1 29.3792 1 28.7941V3.20588C1 2.62085 1.2324 2.05977 1.64609 1.64609C2.05977 1.2324 2.62085 1 3.20588 1L28.7941 1C29.3792 1 29.9402 1.2324 30.3539 1.64609C30.7676 2.05977 31 2.62085 31 3.20588ZM9.82353 12.4706H5.41176V26.5882H9.82353V12.4706ZM10.2206 7.61765C10.2229 7.28393 10.1595 6.95303 10.0339 6.64383C9.90836 6.33463 9.72312 6.05319 9.48879 5.81558C9.25446 5.57797 8.97562 5.38884 8.66819 5.259C8.36076 5.12915 8.03077 5.06113 7.69706 5.05882H7.61765C6.93901 5.05882 6.28816 5.32841 5.80829 5.80829C5.32841 6.28816 5.05882 6.93901 5.05882 7.61765C5.05882 8.29629 5.32841 8.94714 5.80829 9.42701C6.28816 9.90688 6.93901 10.1765 7.61765 10.1765C7.95138 10.1847 8.28347 10.1271 8.59493 10.0069C8.90638 9.8867 9.19111 9.70633 9.43283 9.47608C9.67456 9.24582 9.86855 8.9702 10.0037 8.66494C10.1389 8.35969 10.2126 8.0308 10.2206 7.69706V7.61765ZM26.5882 18.0118C26.5882 13.7676 23.8882 12.1176 21.2059 12.1176C20.3276 12.0737 19.4532 12.2607 18.6698 12.6602C17.8864 13.0596 17.2214 13.6575 16.7412 14.3941H16.6176V12.4706H12.4706V26.5882H16.8824V19.0794C16.8186 18.3104 17.0608 17.5472 17.5565 16.9558C18.0521 16.3643 18.7611 15.9923 19.5294 15.9206H19.6971C21.1 15.9206 22.1412 16.8029 22.1412 19.0265V26.5882H26.5529L26.5882 18.0118Z" stroke="white" stroke-width="1.55963" stroke-linejoin="round"/>
</svg>
