<svg width="32" height="40" viewBox="0 0 32 40" fill="none" xmlns="http://www.w3.org/2000/svg">
<path d="M14.6476 38.8098C14.972 39.0415 15.3607 39.166 15.7593 39.166C16.1579 39.166 16.5466 39.0415 16.871 38.8098C17.4536 38.3978 31.1482 28.5097 31.0926 16.1663C31.0926 7.71193 24.2137 0.833008 15.7593 0.833008C7.30487 0.833008 0.42595 7.71192 0.42595 16.1568C0.370367 28.5097 14.065 38.3978 14.6476 38.8098ZM15.7593 4.66634C22.1015 4.66634 27.2593 9.82409 27.2593 16.1759C27.2995 24.6821 18.8489 32.32 15.7593 34.8251C12.6715 32.3181 4.21903 24.6783 4.25928 16.1663C4.25928 9.82409 9.41703 4.66634 15.7593 4.66634Z" fill="white"/>
<path d="M15.7585 23.8333C19.9866 23.8333 23.4251 20.3948 23.4251 16.1667C23.4251 11.9385 19.9866 8.5 15.7585 8.5C11.5303 8.5 8.0918 11.9385 8.0918 16.1667C8.0918 20.3948 11.5303 23.8333 15.7585 23.8333ZM15.7585 12.3333C17.8725 12.3333 19.5918 14.0526 19.5918 16.1667C19.5918 18.2807 17.8725 20 15.7585 20C13.6444 20 11.9251 18.2807 11.9251 16.1667C11.9251 14.0526 13.6444 12.3333 15.7585 12.3333Z" fill="white"/>
</svg>
